<?xml version="1.0" encoding="UTF-8"?>
<svg xmlns="http://www.w3.org/2000/svg" xmlns:xlink="http://www.w3.org/1999/xlink" width="14px" height="17px" viewBox="0 0 14 17" version="1.1">
<g id="surface1">
<path style=" stroke:none;fill-rule:nonzero;fill:rgb(0%,0%,0%);fill-opacity:1;" d="M 7.003906 4.679688 C 5.015625 4.679688 3.414062 6.386719 3.414062 8.496094 C 3.414062 10.609375 5.015625 12.3125 7.003906 12.3125 C 8.992188 12.3125 10.59375 10.609375 10.59375 8.496094 C 10.59375 6.386719 8.992188 4.679688 7.003906 4.679688 Z M 7.003906 10.976562 C 5.71875 10.976562 4.667969 9.863281 4.667969 8.496094 C 4.667969 7.128906 5.714844 6.015625 7.003906 6.015625 C 8.289062 6.015625 9.335938 7.128906 9.335938 8.496094 C 9.335938 9.863281 8.289062 10.976562 7.003906 10.976562 Z M 11.578125 4.527344 C 11.578125 5.019531 11.203125 5.414062 10.742188 5.414062 C 10.273438 5.414062 9.902344 5.015625 9.902344 4.527344 C 9.902344 4.035156 10.277344 3.636719 10.742188 3.636719 C 11.203125 3.636719 11.578125 4.035156 11.578125 4.527344 Z M 13.957031 5.429688 C 13.902344 4.238281 13.648438 3.179688 12.824219 2.3125 C 12.007812 1.441406 11.011719 1.167969 9.890625 1.109375 C 8.734375 1.039062 5.269531 1.039062 4.113281 1.109375 C 2.992188 1.164062 2 1.4375 1.179688 2.308594 C 0.355469 3.175781 0.101562 4.234375 0.046875 5.425781 C -0.0195312 6.652344 -0.0195312 10.335938 0.046875 11.566406 C 0.101562 12.757812 0.355469 13.8125 1.179688 14.683594 C 2 15.550781 2.992188 15.824219 4.113281 15.882812 C 5.269531 15.953125 8.734375 15.953125 9.890625 15.882812 C 11.011719 15.828125 12.007812 15.554688 12.824219 14.683594 C 13.644531 13.8125 13.898438 12.757812 13.957031 11.566406 C 14.023438 10.335938 14.023438 6.65625 13.957031 5.429688 Z M 12.460938 12.882812 C 12.21875 13.535156 11.746094 14.035156 11.132812 14.296875 C 10.210938 14.6875 8.023438 14.597656 7.003906 14.597656 C 5.984375 14.597656 3.792969 14.683594 2.875 14.296875 C 2.261719 14.039062 1.789062 13.535156 1.542969 12.882812 C 1.179688 11.902344 1.261719 9.578125 1.261719 8.496094 C 1.261719 7.414062 1.179688 5.085938 1.542969 4.109375 C 1.789062 3.460938 2.257812 2.957031 2.875 2.695312 C 3.796875 2.308594 5.984375 2.398438 7.003906 2.398438 C 8.023438 2.398438 10.210938 2.3125 11.132812 2.695312 C 11.742188 2.957031 12.214844 3.457031 12.460938 4.109375 C 12.828125 5.089844 12.742188 7.414062 12.742188 8.496094 C 12.742188 9.578125 12.828125 11.90625 12.460938 12.882812 Z M 12.460938 12.882812 "/>
</g>
</svg>
